<svg xmlns="http://www.w3.org/2000/svg" viewBox="0 0 512 512" style="fill: darkgray;background: white;"><path d="M409.6 0H102.4a34.2 34.2 0 00-34.1 34.1V478a34.2 34.2 0 0034.1 34.1h307.2a34.2 34.2 0 0034.1-34.1V34A34.2 34.2 0 00409.6 0zm17 477.9a17 17 0 01-17 17H102.4a17 17 0 01-17-17V34a17 17 0 0117-17h307.2a17 17 0 0117 17V478z"/><path d="M213.3 187.7a42.7 42.7 0 1085.4 0 42.7 42.7 0 00-85.4 0zm52.5-23.6a25.6 25.6 0 11-19.6 47.3 25.6 25.6 0 0119.6-47.3zM163.5 203.4a8.5 8.5 0 00-16.9 2.8c1.1 6.3 2.7 12.5 4.9 18.5a8.5 8.5 0 0016-5.7 94 94 0 01-4-15.6zM264.5 85.3c0-4.7-3.8-8.5-8.5-8.5-54.2-.1-100.5 39-109.4 92.5a8.5 8.5 0 0016.8 2.8A93.6 93.6 0 01256 93.9c4.7 0 8.5-3.9 8.5-8.6z"/><path d="M400.8 180a145 145 0 10-210.5 137c-4.7 2.4-9 4.9-13.1 7.3H128a25.6 25.6 0 00-25.6 25.6v102.4a25.6 25.6 0 0025.6 25.6h102.4a25.6 25.6 0 0025.6-25.6v-50a641.6 641.6 0 0032.6-73.4 145 145 0 00112.2-149zM128 187.7a128 128 0 11168 121.5c5.2-13.9 8.7-24.3 9.9-27.6a8.5 8.5 0 00-11.1-10.7c-7.2 2.7-48.6 18.8-84.8 36.2a128.3 128.3 0 01-82-119.4zm111 264.6c0 4.7-3.9 8.5-8.6 8.5H128a8.5 8.5 0 01-8.5-8.5V349.9c0-4.7 3.8-8.6 8.5-8.6h26.7a69.3 69.3 0 00-18 42 55.6 55.6 0 0060.2 60.3c15.6-1 30.5-7.4 42-18v26.7zm-9.2-41.5c-9 9.2-21 14.9-34 15.8a38.7 38.7 0 01-42.1-42.2c1-12.8 6.5-25 15.8-34 10.6-10.6 45.9-27.6 78.7-41.9l22.3 19.6c-13.4 34.4-29.9 71.9-40.7 82.7zm47.3-99.7l-11.5-10a1482 1482 0 0118-7.4L277 311zM107.7 50.5a8.5 8.5 0 009.3-1.8 8.5 8.5 0 001.8-9.3c-.5-1-1-2-1.8-2.8a8.7 8.7 0 00-12.1 0c-.8.8-1.4 1.8-1.8 2.8-.5 1-.7 2.2-.7 3.3a9 9 0 002.5 6c.8.8 1.8 1.4 2.8 1.8zM407.1 36.6a9 9 0 00-12 0 8.5 8.5 0 00-2.5 6 8.5 8.5 0 1014.5-6zM397.8 461.5c-1 .4-2 1-2.8 1.8a8.7 8.7 0 000 12 10 10 0 002.8 1.9c1 .4 2.2.7 3.3.7a8.6 8.6 0 006-14.6 8.5 8.5 0 00-9.3-1.8z"/><path d="M250 193.8a9 9 0 007.7 2.3l1.5-.5 1.6-.8 1.3-1a10 10 0 001.7-2.8c.5-1 .8-2.1.7-3.3a9 9 0 00-2.4-6l-1.3-1c-.5-.4-1-.6-1.6-.8-.4-.3-1-.4-1.5-.5a7.6 7.6 0 00-5 .5l-1.5.7-1.3 1a9 9 0 00-2.4 6.1c0 1.1.2 2.2.6 3.3.5 1 1 2 1.8 2.8zM392.5 375.5h-93.8a17 17 0 00-17.1 17v34.2a17 17 0 0017 17h94a17 17 0 0017-17v-34.2a17 17 0 00-17-17zm-93.8 51.2v-34.2h93.8v34.2h-93.8z"/></svg>