<svg xmlns="http://www.w3.org/2000/svg" viewBox="0 0 512 512" style="fill: darkgrey;background: white;"><path d="M469.3 0H42.7A42.7 42.7 0 000 42.7v426.6A42.7 42.7 0 0042.7 512h426.6a42.7 42.7 0 0042.7-42.7V42.7A42.7 42.7 0 00469.3 0zM495 469.3a25.6 25.6 0 01-25.6 25.6H42.7A25.6 25.6 0 0117 469.3V42.7A25.6 25.6 0 0142.7 17h426.6A25.6 25.6 0 01495 42.7v426.6z"/><path d="M256 34.1a221.9 221.9 0 100 443.8A221.9 221.9 0 00256 34zm0 426.7a204.8 204.8 0 110-409.6 204.8 204.8 0 010 409.6z"/><path d="M256 68.3a187.7 187.7 0 100 375.4 187.7 187.7 0 000-375.4zm0 358.4a170.7 170.7 0 110-341.4 170.7 170.7 0 010 341.4zM59.7 85.3a25.6 25.6 0 100-51.2 25.6 25.6 0 000 51.2zm0-34.1a8.5 8.5 0 110 17 8.5 8.5 0 010-17zM59.7 426.7a25.6 25.6 0 100 51.2 25.6 25.6 0 000-51.2zm0 34.1a8.5 8.5 0 110-17 8.5 8.5 0 010 17zM452.3 34.1a25.6 25.6 0 100 51.2 25.6 25.6 0 000-51.2zm0 34.2a8.5 8.5 0 110-17.1 8.5 8.5 0 010 17zM452.3 426.7a25.6 25.6 0 100 51.2 25.6 25.6 0 000-51.2zm0 34.1a8.5 8.5 0 110-17 8.5 8.5 0 010 17z"/><path d="M281.4 107.2a8.5 8.5 0 00-7.6-4.6l-52-.2a8.6 8.6 0 00-7.5 12.6c2.8 5.3 24.4 49 11.1 91.7-40.6-28.6-92.3-22.5-103-20.8a8.5 8.5 0 00-6.8 5.8L99.4 241a8.6 8.6 0 009.6 11c5.9-1 54.1-8 90.6 17.8-39.7 29.8-49.8 80.9-51.5 91.7-.5 3.1.8 6.3 3.3 8.2l42 30.6a8.5 8.5 0 006.4 1.5 8.7 8.7 0 007-7.2c1-6 9.1-54 45-80.7 16 47 61.4 72.4 71.1 77.4a8.5 8.5 0 008.9-.7l42-30.4a8.6 8.6 0 00-1.2-14.6c-5.3-2.7-48.5-25.3-62.9-67.6 49.7-.7 88-36.2 95.6-43.9 2.3-2.2 3-5.6 2.1-8.6L391.5 176a8.6 8.6 0 00-14.2-3.3C373 177 338 211 293.5 211.7c14.6-47.5-7.2-94.8-12.1-104.5zm-13 12.4c6.6 14.6 20.6 52.7 8 89.5a50.8 50.8 0 00-33.1-2.6c6.4-29.2 3.5-59.6-8.2-87l33.3.1zm-148.7 114l10.4-31.5c16-1.8 56.5-3.4 87.6 20a50.7 50.7 0 00-12.7 30.7 143.1 143.1 0 00-85.3-19.1zm73 145l-26.9-19.5c3.3-15.8 14.2-54.8 46.1-77.1a50.6 50.6 0 0025.2 21.6 143 143 0 00-44.4 75zm29.9-116a34 34 0 1157.5 17.6 34 34 0 01-57.5-17.5zM379.4 194l10.1 31.6c-11.8 10.8-43.7 35.9-82.6 35.3a52.2 52.2 0 00-7.7-32.3c29.7-3 57.7-15 80.2-34.6zm-84 94.7c12 27.3 32.1 50.2 57.7 65.5l-27 19.4c-13.9-8-47.6-30.4-59-67.6a50.8 50.8 0 0028.3-17.3z"/></svg>