<svg xmlns="http://www.w3.org/2000/svg" viewBox="0 0 512 512" style="fill: darkgray;background: white;"><path d="M50.5 282l-.7 2a118.6 118.6 0 0035.5 131.6 118.9 118.9 0 00136.6 12 118 118 0 0058-122.8l-.1-.5A119.3 119.3 0 0050.5 282zm35 109.9a101.9 101.9 0 01-21-98.4c6-1.3 12.2-1.5 18.4-.6a84.6 84.6 0 0010.7 82c-3.5 5.2-6.2 11-8.2 17zm46.7-51.5a116.2 116.2 0 00-27.6 20.5 68 68 0 01-5.3-63.4 101 101 0 0129.4 20 34.2 34.2 0 003.5 22.9zm12.2 12.9a31 31 0 0022.6 4.6 118 118 0 009.9 33c-22 5-45-1.4-61.4-17a99 99 0 0129-20.6zm-44.6 52c.9-6 2.8-12 5.7-17.4a84.6 84.6 0 0080.7 18.2c3.8 5 8.3 9.5 13.2 13.4a101.5 101.5 0 01-99.6-14.1zm83.5-54.5a34 34 0 0012.3-19.6 121.6 121.6 0 0034.1 2 68.3 68.3 0 01-36.7 51.9 100.7 100.7 0 01-9.7-34.3zm81.2-26.5c0 35-18 67.5-47.4 86.2a52.8 52.8 0 01-14.4-11.2 85.4 85.4 0 0044.5-69.6c6-1.9 11.8-4.5 17.2-8l.1 2.6zM262 302a52.5 52.5 0 01-15.5 9.8 85.4 85.4 0 00-64.2-70.5 71.2 71.2 0 00-4.8-18.3 102.5 102.5 0 0184.5 79zm-79.2-42.9a68.4 68.4 0 0147 56.9c-11.8 1.2-23.9.3-35.5-2.7a34.1 34.1 0 00-19.6-20.8c4.3-10.7 7-22 8-33.4zm-3.6 65a17 17 0 11-34.1 0 17 17 0 0134.1 0zm-22.3-33.5c-7.8 1.2-15 5-20.2 11-8.5-7.7-18.2-14-28.6-19a68.1 68.1 0 0154-26.7l3.6.2c-.8 11.9-3.8 23.6-8.8 34.5zm.8-68.6a52 52 0 016.8 17l-2.4-.2a85.3 85.3 0 00-71 38.1c-6.2-1.4-12.5-2-18.8-1.7a102.4 102.4 0 0185.4-53.2zM342 323.9c4.8 5.6 11.9 8.9 19.4 8.9h62.3c7.5 0 14.6-3.3 19.4-9l20-23.3c4-4.7 6.2-10.6 6.2-16.7v-53.4a25.6 25.6 0 00-25.6-25.6H341.3a25.6 25.6 0 00-25.6 25.6v53.4c0 6.1 2.2 12 6.2 16.7l20 23.4zm-9.2-93.5c0-4.7 3.8-8.5 8.5-8.5h102.4c4.7 0 8.6 3.8 8.6 8.5v53.4c0 2-.8 4-2 5.6l-20.1 23.4c-1.7 1.8-4 3-6.5 3h-62.3c-2.5 0-4.9-1.2-6.5-3l-20-23.4a8.6 8.6 0 01-2.1-5.6v-53.4z"/><path d="M358.4 290.1a8.5 8.5 0 008.5-8.5v-8.5a8.5 8.5 0 10-17 0v8.5a8.5 8.5 0 008.5 8.5zM392.5 264.5a8.5 8.5 0 008.6-8.5v-8.5a8.5 8.5 0 00-17.1 0v8.5a8.5 8.5 0 008.5 8.5zM426.7 290.1a8.5 8.5 0 008.5-8.5v-8.5a8.5 8.5 0 10-17 0v8.5a8.5 8.5 0 008.5 8.5zM341.3 452.3h102.4a25.6 25.6 0 0025.6-25.6v-51.2a25.6 25.6 0 00-25.6-25.6H341.3a25.6 25.6 0 00-25.6 25.6v51.2a25.6 25.6 0 0025.6 25.6zm59.8-85.4h42.6c4.7 0 8.6 3.9 8.6 8.6v51.2c0 4.7-3.9 8.5-8.6 8.5h-42.6v-68.3zm-68.3 8.6c0-4.7 3.8-8.6 8.5-8.6H384v68.3h-42.7a8.5 8.5 0 01-8.5-8.5v-51.2z"/><path d="M358.4 418.1a8.5 8.5 0 008.5-8.5v-17a8.5 8.5 0 10-17 0v17a8.5 8.5 0 008.5 8.5zM431.4 394l-1.5-.8-1.5-.5a7.6 7.6 0 00-5 .5l-1.5.8-1.3 1a9 9 0 00-2.5 6c0 1.2.2 2.3.7 3.3.4 1 1 2 1.8 2.8a8.7 8.7 0 0012.1 0c.8-.8 1.4-1.8 1.8-2.8.5-1 .7-2.1.7-3.2a9 9 0 00-2.5-6c-.4-.5-.8-.8-1.3-1.1zM59.7 477.9a25.6 25.6 0 100-51.2 25.6 25.6 0 000 51.2zm0-34.2a8.5 8.5 0 110 17.1 8.5 8.5 0 010-17zM59.7 221.9a25.6 25.6 0 100-51.2 25.6 25.6 0 000 51.2zm0-34.2a8.5 8.5 0 110 17.1 8.5 8.5 0 010-17zM264.5 221.9a25.6 25.6 0 100-51.2 25.6 25.6 0 000 51.2zm0-34.2a8.5 8.5 0 110 17.1 8.5 8.5 0 010-17zM264.5 426.7a25.6 25.6 0 100 51.2 25.6 25.6 0 000-51.2zm0 34.1a8.5 8.5 0 110-17 8.5 8.5 0 010 17z"/><path d="M511.8 144v-1L484 32.3A42.6 42.6 0 00442.7 0H69.3A42.6 42.6 0 0028 32.3L.3 143v1l-.3 1V478A34.2 34.2 0 0034.1 512H478a34.2 34.2 0 0034.1-34.1V145l-.2-1zM44.5 36.5A25.6 25.6 0 0169.3 17h373.4c11.7 0 22 8 24.8 19.4l25 100h-473l25-100zm450.4 441.4a17 17 0 01-17 17H34a17 17 0 01-17-17V153.6h477.8v324.3z"/><path d="M256 42.7c-34 0-59.7 14.6-59.7 34.1s25.6 34.1 59.7 34.1c34 0 59.7-14.6 59.7-34.1S290.1 42.7 256 42.7zm0 51.2c-26 0-42.7-10.1-42.7-17.1 0-7 16.7-17 42.7-17s42.7 10 42.7 17-16.7 17-42.7 17z"/></svg>