<?xml version="1.0" encoding="utf-8"?>
<!-- Generator: Adobe Illustrator 19.2.0, SVG Export Plug-In . SVG Version: 6.00 Build 0)  -->
<svg version="1.1" id="ramchip" xmlns="http://www.w3.org/2000/svg" xmlns:xlink="http://www.w3.org/1999/xlink" x="0px" y="0px"
	 viewBox="0 0 237.5856 237.5856" enable-background="new 0 0 237.5856 237.5856" xml:space="preserve" style="fill: darkgray;background: white">
<g>
	<path fill="none" d="M96.3748,113.3396c-0.7852-0.7812-1.8124-1.1756-2.8436-1.1756c-1.0276,0-2.0588,0.3944-2.844,1.1796
		l-2.8008,2.7968c-1.5664,1.5704-1.5664,4.1212,0,5.6876l19.5785,19.578c1.5663,1.5588,4.1131,1.5704,5.6871-0.004l2.7932-2.7968
		c0.7656-0.7616,1.1877-1.7732,1.1877-2.8436c-0.004-1.0744-0.4221-2.082-1.1837-2.844L96.3748,113.3396z"/>
	<path fill="none" d="M70.918,138.7968c-0.762-0.762-1.7696-1.1796-2.844-1.1796c-1.074,0-2.082,0.4176-2.8436,1.1796
		l-2.8008,2.8008c-1.5664,1.5664-1.5624,4.1208,0.004,5.6872l19.574,19.5744c1.5704,1.5704,4.1253,1.5664,5.6876,0l2.7968-2.8008
		c0.7656-0.7616,1.1836-1.7736,1.1836-2.8436c0-1.0704-0.418-2.0784-1.1796-2.84L70.918,138.7968z"/>
	<path fill="none" d="M121.828,87.8864c-0.7616-0.7616-1.7696-1.1796-2.84-1.1796h-0.0036c-1.0704,0-2.0784,0.418-2.84,1.1796
		l-2.8008,2.8008c-0.7616,0.762-1.1836,1.7736-1.1836,2.844c0.004,1.07,0.422,2.078,1.1836,2.8396l19.578,19.5784
		c0.762,0.7616,1.7696,1.1796,2.84,1.1796h0.004c1.07,0,2.078-0.418,2.8396-1.1796l2.8008-2.8008
		c0.762-0.762,1.1836-1.7696,1.1836-2.84c0-1.074-0.4216-2.082-1.1836-2.84L121.828,87.8864z"/>
	
		<rect x="138.8337" y="140.8337" transform="matrix(0.7071 -0.7071 0.7071 0.7071 -59.1641 142.8348)" fill="none" width="8.0022" height="4.0022"/>
	<path fill="none" d="M45.4609,164.2536c-0.7617-0.7616-1.7697-1.1796-2.8437-1.1796c-1.0704,0-2.0784,0.418-2.836,1.1796
		l-2.8048,2.8008c-0.7616,0.762-1.1835,1.7696-1.1835,2.84c0,1.074,0.4219,2.082,1.1835,2.84v0.0036l19.578,19.5784
		c0.762,0.7616,1.7696,1.1796,2.84,1.1796h0.004c1.07,0,2.078-0.418,2.8396-1.1796l2.8008-2.8008
		c0.7621-0.762,1.1796-1.7736,1.1796-2.844c0-1.0704-0.4175-2.078-1.1796-2.8396L45.4609,164.2536z"/>
	<path fill="none" d="M147.2849,62.4296c-0.7617-0.762-1.7693-1.1796-2.8437-1.1796c-1.074,0-2.082,0.4176-2.8436,1.1796
		l-2.7932,2.8008c-0.7656,0.7616-1.1872,1.7696-1.1872,2.8396c0,1.0744,0.4216,2.082,1.1837,2.84v0.004l19.5739,19.578
		c0.7616,0.7616,1.7696,1.1796,2.8436,1.1796c1.0745,0,2.0825-0.418,2.844-1.1796l2.8008-2.8008
		c0.7617-0.7616,1.1796-1.7736,1.1796-2.8436c0-1.0704-0.4179-2.0784-1.1796-2.84L147.2849,62.4296z"/>
	<path fill="none" d="M216.3769,52.326l-41.0137-41.0136L11.3124,175.3592l42.4256,42.4296l73.5392-73.5388l16.9728-16.9728
		L217.7868,53.74l-1.412-1.412L216.3769,52.326z M70.6952,195.1716l-2.8008,2.8008c-2.2695,2.2696-5.2852,3.5236-8.4924,3.5236
		c-0.0036,0-0.0036,0-0.0076,0c-3.2072,0-6.2228-1.25-8.496-3.5236L31.32,178.3944c-2.2732-2.2696-3.5271-5.2892-3.5271-8.5
		c0-3.2072,1.2539-6.2268,3.5271-8.5l2.8009-2.7968c2.2655-2.2696,5.2851-3.5236,8.4923-3.5236h0.004
		c3.2108,0,6.2264,1.25,8.5,3.5236l19.578,19.578C75.3828,182.8632,75.3828,190.4844,70.6952,195.1716z M96.152,169.7148
		l-2.7968,2.8044c-2.3476,2.34-5.4256,3.512-8.504,3.512c-3.082,0-6.16-1.172-8.5036-3.5156l-19.5704-19.5744
		c-4.6836-4.6836-4.6876-12.3124-0.008-17l2.8048-2.8008c4.6876-4.6876,12.3124-4.6876,17,0l19.578,19.578
		c2.2696,2.2696,3.5236,5.2892,3.5236,8.4924C99.6796,164.4216,98.4256,167.4412,96.152,169.7148z M121.6052,144.2616
		l-2.7928,2.8008c-2.3475,2.3396-5.4296,3.5116-8.508,3.5116c-3.078,0-6.156-1.168-8.496-3.5116l-19.578-19.578
		c-4.6836-4.6836-4.6836-12.3088-0.004-17l2.8048-2.8008c4.6872-4.6876,12.3124-4.6876,17,0l19.574,19.578
		c2.2736,2.2696,3.5237,5.2892,3.5277,8.492C125.1329,138.9648,123.8828,141.9844,121.6052,144.2616z M147.0624,118.8084
		l-2.8008,2.7968c-2.3436,2.344-5.422,3.5156-8.5,3.5156c-3.0744,0-6.1524-1.1716-8.496-3.5156l-19.5784-19.578
		c-2.2732-2.2696-3.5232-5.2852-3.5272-8.4924c0-3.2108,1.25-6.2304,3.5272-8.5076l2.8008-2.7968
		c4.6876-4.6796,12.3089-4.6876,16.9964,0l19.578,19.578c2.2732,2.2696,3.5272,5.2892,3.5272,8.5
		C150.5896,113.5156,149.3356,116.5348,147.0624,118.8084z M172.5192,93.3476l-2.8008,2.8008
		c-2.2692,2.2692-5.2888,3.5232-8.496,3.5232h-0.004c-3.2108,0-6.2264-1.25-8.5-3.5232L133.1444,76.57
		c-2.2736-2.2732-3.5272-5.2888-3.5272-8.5c0-3.2068,1.2536-6.2264,3.5272-8.5l2.7928-2.7968
		c2.2736-2.2696,5.2932-3.5232,8.5-3.5232h0.004c3.2108,0,6.2268,1.25,8.5,3.5232l19.578,19.578
		C177.2068,81.0388,177.2068,88.66,172.5192,93.3476z M197.9724,67.8944l-2.7928,2.8008c-2.3476,2.3396-5.426,3.5116-8.504,3.5116
		c-3.082,0-6.16-1.172-8.504-3.5156l-19.574-19.574c-4.6836-4.6836-4.6836-12.3088-0.004-17l2.8048-2.8008
		c2.2696-2.2696,5.2888-3.5236,8.496-3.5236h0.004c3.2108,0,6.2265,1.25,8.5,3.5236l19.574,19.578
		c2.2736,2.2696,3.5236,5.2892,3.5276,8.492C201.5,62.5976,200.25,65.6172,197.9724,67.8944z"/>
	<path fill="none" d="M172.742,36.9724c-0.7616-0.7616-1.7696-1.1796-2.8436-1.1796c-1.0744,0-2.082,0.418-2.844,1.1796
		l-2.8008,2.8008c-1.5664,1.5704-1.5664,4.1212,0,5.6876l19.5784,19.574c1.57,1.5704,4.1249,1.5664,5.6872,0l2.7932-2.7968
		c0.7656-0.7616,1.1876-1.7732,1.1876-2.8436c-0.004-1.0744-0.422-2.082-1.1836-2.8436L172.742,36.9724z"/>
	<path d="M51.1172,158.5976c-2.2736-2.2736-5.2892-3.5236-8.5-3.5236h-0.004c-3.2072,0-6.2268,1.254-8.4923,3.5236l-2.8009,2.7968
		c-2.2732,2.2732-3.5271,5.2928-3.5271,8.5c0,3.2108,1.2539,6.2304,3.5271,8.5l19.5784,19.578
		c2.2732,2.2736,5.2888,3.5236,8.496,3.5236c0.004,0,0.004,0,0.0076,0c3.2072,0,6.2229-1.254,8.4924-3.5236l2.8008-2.8008
		c4.6876-4.6872,4.6876-12.3084,0-16.996L51.1172,158.5976z M65.0388,189.5156l-2.8008,2.8008
		c-0.7616,0.7616-1.7696,1.1796-2.8396,1.1796h-0.004c-1.0704,0-2.078-0.418-2.84-1.1796l-19.578-19.5784v-0.0036
		c-0.7616-0.758-1.1835-1.766-1.1835-2.84c0-1.0704,0.4219-2.078,1.1835-2.84l2.8048-2.8008
		c0.7576-0.7616,1.7656-1.1796,2.836-1.1796c1.074,0,2.082,0.418,2.8437,1.1796l19.5779,19.5784
		c0.7621,0.7616,1.1796,1.7692,1.1796,2.8396C66.2184,187.742,65.8009,188.7536,65.0388,189.5156z"/>
	<path d="M102.0312,107.6836c-4.6876-4.6876-12.3128-4.6876-17,0l-2.8048,2.8008c-4.6796,4.6912-4.6796,12.3164,0.004,17
		l19.578,19.578c2.34,2.3436,5.418,3.5116,8.496,3.5116c3.0784,0,6.1605-1.172,8.508-3.5116l2.7928-2.8008
		c2.2776-2.2772,3.5277-5.2968,3.5277-8.508c-0.004-3.2028-1.2541-6.2224-3.5277-8.492L102.0312,107.6836z M115.9452,138.6052
		l-2.7932,2.7968c-1.574,1.5744-4.1208,1.5628-5.6871,0.004l-19.5785-19.578c-1.5664-1.5664-1.5664-4.1172,0-5.6876l2.8008-2.7968
		c0.7852-0.7852,1.8164-1.1796,2.844-1.1796c1.0312,0,2.0584,0.3944,2.8436,1.1756l19.5744,19.578
		c0.7616,0.762,1.1797,1.7696,1.1837,2.844C117.1329,136.832,116.7108,137.8436,115.9452,138.6052z"/>
	<path d="M152.9412,56.7732c-2.2732-2.2732-5.2892-3.5232-8.5-3.5232h-0.004c-3.2068,0-6.2264,1.2536-8.5,3.5232l-2.7928,2.7968
		c-2.2736,2.2736-3.5272,5.2932-3.5272,8.5c0,3.2112,1.2536,6.2268,3.5272,8.5l19.574,19.5784
		c2.2736,2.2732,5.2892,3.5232,8.5,3.5232h0.004c3.2072,0,6.2268-1.254,8.496-3.5232l2.8008-2.8008
		c4.6876-4.6876,4.6876-12.3088,0-16.9964L152.9412,56.7732z M166.8632,87.6912l-2.8008,2.8008
		c-0.7615,0.7616-1.7695,1.1796-2.844,1.1796c-1.074,0-2.082-0.418-2.8436-1.1796l-19.5739-19.578V70.91
		c-0.7621-0.758-1.1837-1.7656-1.1837-2.84c0-1.07,0.4216-2.078,1.1872-2.8396l2.7932-2.8008
		c0.7616-0.762,1.7696-1.1796,2.8436-1.1796c1.0744,0,2.082,0.4176,2.8437,1.1796l19.5783,19.578
		c0.7617,0.7616,1.1796,1.7696,1.1796,2.84C168.0428,85.9176,167.6249,86.9296,166.8632,87.6912z"/>
	<path d="M76.574,133.1404c-4.6876-4.6876-12.3124-4.6876-17,0l-2.8048,2.8008c-4.6796,4.6876-4.6756,12.3164,0.008,17
		l19.5704,19.5744c2.3436,2.3436,5.4216,3.5156,8.5036,3.5156c3.0784,0,6.1564-1.172,8.504-3.512l2.7968-2.8044
		c2.2736-2.2736,3.5276-5.2932,3.5236-8.504c0-3.2032-1.254-6.2228-3.5236-8.4924L76.574,133.1404z M90.492,164.0584l-2.7968,2.8008
		c-1.5623,1.5664-4.1172,1.5704-5.6876,0l-19.574-19.5744c-1.5664-1.5664-1.5704-4.1208-0.004-5.6872l2.8008-2.8008
		c0.7616-0.762,1.7696-1.1796,2.8436-1.1796c1.0744,0,2.082,0.4176,2.844,1.1796l19.578,19.578
		c0.7616,0.7616,1.1796,1.7696,1.1796,2.84C91.6756,162.2848,91.2576,163.2968,90.492,164.0584z"/>
	<path d="M127.4844,82.2304c-4.6875-4.6876-12.3088-4.6796-16.9964,0l-2.8008,2.7968c-2.2772,2.2772-3.5272,5.2968-3.5272,8.5076
		c0.004,3.2072,1.254,6.2228,3.5272,8.4924l19.5784,19.578c2.3436,2.344,5.4216,3.5156,8.496,3.5156
		c3.078,0,6.1564-1.1716,8.5-3.5156l2.8008-2.7968c2.2732-2.2736,3.5272-5.2928,3.5272-8.5c0-3.2108-1.254-6.2304-3.5272-8.5
		L127.4844,82.2304z M141.406,113.1484l-2.8008,2.8008c-0.7616,0.7616-1.7696,1.1796-2.8396,1.1796h-0.004
		c-1.0704,0-2.078-0.418-2.84-1.1796l-19.578-19.5784c-0.7616-0.7616-1.1796-1.7696-1.1836-2.8396
		c0-1.0704,0.422-2.082,1.1836-2.844l2.8008-2.8008c0.7616-0.7616,1.7696-1.1796,2.84-1.1796h0.0036
		c1.0704,0,2.0784,0.418,2.84,1.1796l19.578,19.582c0.762,0.758,1.1836,1.766,1.1836,2.84
		C142.5896,111.3788,142.168,112.3864,141.406,113.1484z"/>
	<path d="M178.3984,31.3164c-2.2735-2.2736-5.2892-3.5236-8.5-3.5236h-0.004c-3.2072,0-6.2264,1.254-8.496,3.5236l-2.8048,2.8008
		c-4.6796,4.6912-4.6796,12.3164,0.004,17l19.574,19.574c2.344,2.3436,5.422,3.5156,8.504,3.5156c3.078,0,6.1564-1.172,8.504-3.5116
		l2.7928-2.8008c2.2776-2.2772,3.5276-5.2968,3.5276-8.508c-0.004-3.2028-1.254-6.2224-3.5276-8.492L178.3984,31.3164z
		 M192.3124,62.238l-2.7932,2.7968c-1.5623,1.5664-4.1172,1.5704-5.6872,0l-19.5784-19.574c-1.5664-1.5664-1.5664-4.1172,0-5.6876
		l2.8008-2.8008c0.762-0.7616,1.7696-1.1796,2.844-1.1796c1.074,0,2.082,0.418,2.8436,1.1796l19.5744,19.5784
		c0.7616,0.7616,1.1796,1.7692,1.1836,2.8436C193.5,60.4648,193.078,61.4764,192.3124,62.238z"/>
	<path d="M231.9296,67.8828l5.656-5.6564l-8.486-8.4864l0.0016-0.002L175.3632,0L0,175.3592l46.668,46.672l0,0l15.5544,15.5544
		l5.6564-5.656l-8.4844-8.4844l5.658-5.6584l8.4864,8.4864l5.6564-5.656l-8.4863-8.4864l5.6567-5.6572l8.4856,8.4832l5.6564-5.656
		l-8.4856-8.4836l5.6576-5.6572l8.4844,8.4844l5.656-5.6564l-8.4844-8.4844l5.6584-5.658l8.4864,8.4864l5.656-5.6564l-8.486-8.4864
		l5.656-5.656l8.4865,8.486l5.6563-5.656l-8.4864-8.4864l5.6592-5.6592l8.4832,8.4852l5.6564-5.656l-8.4832-8.4856l5.6556-5.656
		l8.4876,8.4852l16.9688-16.9688l-8.4852-8.4872l5.6584-5.6584l8.4832,8.4856l5.656-5.6564L161.22,121.62l5.6556-5.6564
		l8.4876,8.4856l5.656-5.6564l-8.4872-8.4852l5.658-5.6584l8.4856,8.4836l5.6564-5.6564l-8.4856-8.4836l5.6572-5.6572l8.4844,8.4844
		l5.6564-5.656l-8.4844-8.4844l5.6556-5.6552l8.4853,8.4872l5.656-5.6564l-8.4853-8.4872l5.6592-5.6592l8.4864,8.4864l5.656-5.6564
		l-8.4864-8.4864l5.6564-5.656L231.9296,67.8828z M147.078,141.4216l-5.6564,5.6564l-2.832-2.828l5.6604-5.6604L147.078,141.4216z
		 M144.25,127.2772L127.2772,144.25L53.738,217.7888l-42.4256-42.4296L175.3632,11.3124l41.0137,41.0136l-0.0021,0.002l1.412,1.412
		L144.25,127.2772z"/>
</g>
</svg>
