<svg xmlns="http://www.w3.org/2000/svg" viewBox="0 0 512 512" style="fill: darkgray;background: white;"><path d="M486.4 34.1h-68.3v-8.5A25.6 25.6 0 00392.5 0h-273a25.6 25.6 0 00-25.6 25.6v8.5H25.6A25.6 25.6 0 000 59.7v443.8a8.5 8.5 0 008.5 8.5h495a8.5 8.5 0 008.5-8.5V59.7a25.6 25.6 0 00-25.6-25.6zM93.9 495H17V59.7c0-4.7 3.8-8.5 8.5-8.5h68.3v443.7zm307.2 0H110.9V25.6c0-4.7 3.9-8.5 8.6-8.5h273c4.7 0 8.6 3.8 8.6 8.5v469.3zm93.8 0h-76.8V51.2h68.3c4.7 0 8.5 3.8 8.5 8.5V495z"/><path d="M256 247.5a68.3 68.3 0 100 136.5 68.3 68.3 0 000-136.5zm0 119.4a51.2 51.2 0 110-102.4 51.2 51.2 0 010 102.4z"/><path d="M278.8 290.4a8.5 8.5 0 10-11.5 12.6 17 17 0 11-22.7 0 8.5 8.5 0 10-11.4-12.6 34.1 34.1 0 1045.6 0zM324.3 179.2H187.7a8.5 8.5 0 00-8.5 8.5v17.1a25.6 25.6 0 0025.6 25.6h102.4a25.6 25.6 0 0025.6-25.6v-17a8.5 8.5 0 00-8.5-8.6zm-8.6 25.6c0 4.7-3.8 8.5-8.5 8.5H204.8a8.5 8.5 0 01-8.5-8.5v-8.5h119.4v8.5zM324.3 111H187.7a8.5 8.5 0 00-8.5 8.5v17a25.6 25.6 0 0025.6 25.6h102.4a25.6 25.6 0 0025.6-25.6v-17a8.5 8.5 0 00-8.5-8.6zm-8.6 25.5c0 4.7-3.8 8.6-8.5 8.6H204.8a8.5 8.5 0 01-8.5-8.6V128h119.4v8.5zM324.3 42.7H187.7a8.5 8.5 0 00-8.5 8.5v17A25.6 25.6 0 00204.8 94h102.4a25.6 25.6 0 0025.6-25.6V51.2a8.5 8.5 0 00-8.5-8.5zm-8.6 25.6c0 4.7-3.8 8.5-8.5 8.5H204.8a8.5 8.5 0 01-8.5-8.5v-8.6h119.4v8.6zM273 409.6h-76.7a8.5 8.5 0 100 17H273a8.5 8.5 0 100-17zM315.7 409.6h-8.5a8.5 8.5 0 100 17h8.5a8.5 8.5 0 100-17z"/></svg>