<svg xmlns="http://www.w3.org/2000/svg" viewBox="0 0 512 512" style="fill: darkgray;background: white;"><path d="M367 162.1a68.3 68.3 0 100 136.6 68.3 68.3 0 000-136.6zm0 119.5a51.2 51.2 0 110-102.4 51.2 51.2 0 010 102.4z"/><path d="M367 196.3a34.1 34.1 0 100 68.2 34.1 34.1 0 000-68.2zm0 51.2a17 17 0 110-34.2 17 17 0 010 34.2zM431.4 155l-1.5-.7a8.5 8.5 0 00-9.3 1.8 9 9 0 00-2.5 6c0 2.3.9 4.5 2.5 6 .8.8 1.8 1.5 2.8 1.9a8.5 8.5 0 0011.8-7.8 9 9 0 00-2.5-6.1l-1.3-1zM430 290.8a8.2 8.2 0 00-6.6 0l-1.5.8-1.3 1a9 9 0 00-2.5 6c0 1.2.2 2.3.7 3.3.5 1 1 2 1.8 2.8a8.5 8.5 0 009.3 1.8c1-.4 2-1 2.8-1.8a8.8 8.8 0 002.5-6 9 9 0 00-2.5-6 9.9 9.9 0 00-2.8-1.9zM304 170c2 .9 4.4.9 6.4 0 1-.4 2-1 2.9-1.8a8.5 8.5 0 002.4-6 9 9 0 00-2.4-6.1l-1.4-1c-.4-.4-1-.6-1.5-.8a8.2 8.2 0 00-8 .8l-1.3 1c-.7.8-1.3 1.7-1.8 2.8a8.4 8.4 0 001.8 9.3c.9.7 1.8 1.4 2.9 1.8zM310.5 290.7a8.5 8.5 0 00-11.8 8 8.5 8.5 0 1017 0c0-3.5-2-6.6-5.2-8zM114.2 137.2c-2-1-4.5-1-6.5 0a8.2 8.2 0 00-5.3 7.9c0 1 .2 2.2.7 3.2.4 1 1 2 1.8 2.8.8.8 1.8 1.4 2.8 1.8 2 1 4.4 1 6.5 0 1-.4 2-1 2.8-1.8a8.6 8.6 0 000-12 9.9 9.9 0 00-2.8-1.9zM235.2 138l-1.6-.8-1.6-.5a7.5 7.5 0 00-4.8.5l-1.6.8-1.3 1-1 1.3-.8 1.5-.5 1.6-.1 1.7c0 2.2.8 4.4 2.4 6 .9.8 1.8 1.4 2.9 1.8 2 1 4.4 1 6.4 0a7.7 7.7 0 004.6-4.6c.5-1 .7-2.1.7-3.2 0-2.3-.9-4.5-2.4-6l-1.3-1.1zM114.2 307.8a8.5 8.5 0 00-11.8 8c0 1 .2 2.1.6 3.2.5 1 1.1 1.9 1.9 2.7.8.8 1.7 1.5 2.8 2 1 .4 2.1.6 3.2.6 2.3 0 4.5-1 6-2.6a8.5 8.5 0 00-2.8-14zM227.1 307.8a8.5 8.5 0 00-2.8 14c.9.7 1.8 1.4 2.9 1.9a8.6 8.6 0 009.3-14 8.5 8.5 0 00-9.4-1.9z"/><path d="M503.5 273h-13.8l13.3-39.9c.6-1.8.6-3.6 0-5.4l-13.3-40h13.8a8.5 8.5 0 008.4-9.6l-7.6-60.7a17 17 0 00-16.9-15H8.5a8.5 8.5 0 100 17h25.6v281.7a8.5 8.5 0 1017.1 0v-42.7h17v17a17 17 0 0017.1 17.1h17.1a17 17 0 0017-17v-17.1h17.1v17a17 17 0 0017.1 17.1h34.1a17 17 0 0017.1-17v-17.1h17v17a17 17 0 0017.1 17.1h111a17 17 0 0017-17v-17.1H384V384a8.5 8.5 0 008.5 8.5h25.6a8.5 8.5 0 100-17h-17v-17.1h86.3a17 17 0 0017-15l7.5-60.7a8.5 8.5 0 00-8.4-9.6zM68.3 341.4H51.2V119.5h17v221.8zm419.1-221.8l6.4 51.2h-11.7l-38.4-51.2h43.7zm-402 0H290l-38.4 51.2H85.3v-51.2zm0 68.2h158.8l-5.7 17.1H85.3v-17zm0 34.2h147.4l-2 5.8a8.4 8.4 0 000 5.4l2 5.8H85.3v-17zm0 34.1h153l5.8 17H85.3v-17zm0 119.5v-17.1h17v17h-17zm68.2 0v-17.1h34.1v17h-34.1zm42.7-34.2h-111v-51.2h166.4l38.4 51.2h-93.8zm42.6 34.2v-17.1h111v17h-111zm72.6-34.2l-47.8-63.7-11.2-33.4-4.6-13.8 4.6-13.7v-.1l11.2-33.4 47.8-63.7h110.9l47.8 63.7 15.7 47.2-15.7 47.2-47.8 63.7h-111zm175.9 0h-43.7l38.4-51.2h11.7l-6.4 51.2z"/></svg>